<svg width="626" height="218" viewBox="0 0 626 218" fill="none" xmlns="http://www.w3.org/2000/svg">
<g clip-path="url(#clip0_1_103)">
<path d="M58.6679 42.9368C56.8748 41.6663 54.9086 40.6596 52.8296 39.9476C55.4291 38.838 57.6774 37.0418 59.3335 34.7515C61.6893 31.3244 62.8807 27.2307 62.7313 23.0748C62.8446 19.3274 61.8364 15.6314 59.8355 12.4608C57.7013 9.35713 54.6645 6.98471 51.1365 5.66501C46.6602 3.9901 41.9021 3.19708 37.1245 3.3297H1.45258V83.9566H38.2104C42.1223 84.0014 46.0213 83.4982 49.7937 82.4619C53.1253 81.529 56.2374 79.9412 58.9482 77.7914C61.5347 75.757 63.5933 73.1296 64.95 70.1315C66.3941 66.7669 67.0989 63.1313 67.0166 59.4708C67.0842 56.2421 66.3584 53.0461 64.9027 50.1634C63.4471 47.2806 61.3062 44.7991 58.6679 42.9368ZM19.8899 19.6652H33.5982C36.9845 19.6652 39.5183 20.3658 41.2114 21.7904C42.0512 22.5056 42.7164 23.4037 43.1555 24.4156C43.5947 25.4276 43.7964 26.5267 43.7452 27.6287C43.7933 29.147 43.4128 30.6484 42.6475 31.9607C41.877 33.1841 40.7531 34.145 39.4248 34.7164C37.807 35.4092 36.0582 35.7438 34.2988 35.6972H19.8899V19.6652ZM46.5125 63.5692C45.6692 64.9068 44.451 65.9667 43.0095 66.6168C41.2799 67.3524 39.4121 67.7069 37.5333 67.6561H19.8899V50.3163H36.9494C38.9122 50.2731 40.8656 50.602 42.7061 51.2855C44.199 51.8513 45.4994 52.8317 46.4541 54.1112C47.3578 55.4327 47.8198 57.0065 47.7737 58.6068C47.8371 60.3475 47.3994 62.07 46.5125 63.5692Z" stroke="white" stroke-width="2.71837" stroke-miterlimit="10"/>
<path d="M131.554 51.8938C131.596 54.5969 130.926 57.2632 129.61 59.6246C128.294 61.986 126.379 63.9591 124.058 65.3454C121.701 66.7203 119.01 67.4193 116.281 67.3654C113.647 67.4056 111.054 66.7057 108.797 65.3454C106.57 64.0084 104.74 62.1019 103.496 59.8223C102.143 57.4006 101.447 54.6674 101.476 51.8938V3.2959H81.6253V52.9682C81.5234 58.7278 83.0625 64.3977 86.0624 69.3153C89.0621 74.1161 93.3182 78.0047 98.3696 80.56C103.902 83.359 110.035 84.7621 116.235 84.6467C122.396 84.7544 128.49 83.3512 133.983 80.56C139.018 78.0044 143.259 74.1199 146.243 69.3271C149.243 64.4092 150.783 58.7396 150.681 52.9798V3.2959H131.554V51.8938Z" stroke="white" stroke-width="2.71837" stroke-miterlimit="10"/>
<path d="M168.766 19.7715H182.369V67.4822H168.766V83.9578H215.671V67.4822H201.951V19.7715H215.671V3.2959H168.766V19.7715Z" stroke="white" stroke-width="2.71837" stroke-miterlimit="10"/>
<path d="M253.924 3.2959H234.331V83.9578H289.876V66.6765H253.924V3.2959Z" stroke="white" stroke-width="2.71837" stroke-miterlimit="10"/>
<path d="M367.257 14.5846C363.636 10.9481 359.298 8.10494 354.518 6.23583C349.342 4.22642 343.829 3.22757 338.276 3.29333H304.507V83.9553H338.276C343.823 84.0376 349.336 83.0627 354.518 81.0829C359.289 79.2179 363.625 76.392 367.257 72.7808C370.877 69.1285 373.683 64.751 375.49 59.9365C377.464 54.7155 378.443 49.1707 378.374 43.5893C378.438 38.05 377.46 32.548 375.49 27.3705C373.655 22.5873 370.853 18.2345 367.257 14.5846ZM357.052 53.1174C356.156 55.7977 354.727 58.2686 352.848 60.3802C351.038 62.3826 348.821 63.975 346.344 65.0509C343.619 66.1799 340.689 66.7324 337.739 66.6739H324.101V20.5747H337.739C340.709 20.5222 343.657 21.0951 346.392 22.2561C348.871 23.327 351.089 24.9201 352.896 26.9267C354.77 29.0406 356.201 31.5107 357.099 34.1896C358.136 37.2295 358.646 40.4243 358.606 43.636C358.627 46.8425 358.102 50.0293 357.052 53.059V53.1174Z" stroke="white" stroke-width="2.71837" stroke-miterlimit="10"/>
<path d="M390.132 19.7715H403.723V67.4822H390.132V83.9578H437.025V67.4822H423.317V19.7715H437.025V3.2959H390.132V19.7715Z" stroke="white" stroke-width="2.71837" stroke-miterlimit="10"/>
<path d="M509.385 23.2279C509.385 26.3805 509.385 29.2997 509.442 31.9853C509.501 34.6709 509.548 37.1814 509.666 39.4816C509.782 41.7819 509.933 44.0472 510.132 46.2774C510.331 48.5076 510.553 50.7262 510.774 53.0616C510.833 53.6103 510.903 54.2292 510.96 54.7197L473.188 3.2959H455.673V83.9578H474.706V56.9965C474.706 55.0816 474.706 53.3302 474.647 51.7538C474.589 50.1774 474.553 48.5895 474.471 46.9664C474.39 45.3433 474.261 43.5567 474.075 41.5602C473.888 39.5634 473.654 37.2749 473.385 34.6943C473.385 34.344 473.304 33.9586 473.269 33.585L510.634 83.9578H528.382V3.2959H509.385V23.2279Z" stroke="white" stroke-width="2.71837" stroke-miterlimit="10"/>
<path d="M623.816 46.3928C623.816 45.015 623.723 43.5904 623.64 42.1309C623.601 40.9573 623.488 39.7873 623.302 38.628H585.282V53.9944H604.935C604.83 55.7028 604.378 57.3719 603.604 58.8984C602.7 60.6873 601.445 62.2758 599.914 63.569C598.29 64.9285 596.435 65.9845 594.437 66.6867C592.279 67.4698 589.997 67.8651 587.7 67.8544C582.926 67.9096 578.246 66.5193 574.276 63.8665C570.307 61.2138 567.232 57.4222 565.457 52.9901C564.218 49.9146 563.594 46.6257 563.623 43.3101C563.613 40.0099 564.228 36.7375 565.432 33.6654C567.073 29.3022 570.018 25.5503 573.867 22.92C577.715 20.2897 582.281 18.9086 586.94 18.9645C589.443 18.9518 591.931 19.3219 594.32 20.0622C596.596 20.7855 598.778 21.7732 600.824 23.0046C602.965 24.3154 604.955 25.8583 606.756 27.6052L618.631 15.0528C616.285 12.3354 613.528 10.0029 610.457 8.1403C607.099 6.08532 603.477 4.49453 599.693 3.41128C595.585 2.23659 591.33 1.65466 587.058 1.68314C581.096 1.6225 575.176 2.67589 569.602 4.78911C564.435 6.75334 559.715 9.73089 555.718 13.5466C551.826 17.276 548.746 21.7677 546.668 26.7411C544.515 31.9884 543.439 37.6152 543.504 43.2868C543.448 48.9754 544.462 54.6239 546.494 59.9377C548.415 64.9247 551.358 69.4548 555.134 73.2373C558.977 77.0555 563.57 80.0372 568.62 81.9948C574.207 84.1401 580.152 85.1983 586.135 85.1125C591.25 85.1567 596.327 84.2582 601.116 82.4619C605.553 80.8057 609.622 78.2989 613.097 75.0822C616.485 71.9323 619.175 68.1053 620.99 63.8493C622.905 59.3304 623.866 54.4649 623.816 49.5573C623.816 48.8098 623.816 47.7707 623.816 46.3928Z" stroke="white" stroke-width="2.71837" stroke-miterlimit="10"/>
<path d="M10.7107 135.518H1.61462V216.052H21.1729V185.225H52.3494V168.878H21.1729V152.775H57.0668V135.518H21.1729H10.7107Z" fill="#8FF9A7" stroke="#8FF9A7" stroke-width="0.357681" stroke-miterlimit="10"/>
<path d="M121.955 184.069C121.998 186.835 121.283 189.56 119.889 191.951C118.569 194.229 116.688 196.13 114.424 197.474C112.068 198.84 109.382 199.534 106.659 199.483C104.03 199.521 101.442 198.826 99.1859 197.474C96.9694 196.149 95.1408 194.265 93.8847 192.008C92.5668 189.593 91.895 186.879 91.9348 184.128V135.518H72.1429V185.108C72.0376 190.867 73.5725 196.537 76.5684 201.455C79.5599 206.24 83.7986 210.12 88.8289 212.677C94.3514 215.468 100.472 216.866 106.659 216.751C112.807 216.859 118.889 215.459 124.372 212.677C129.403 210.12 133.641 206.24 136.633 201.455C139.629 196.537 141.164 190.867 141.058 185.108V135.518H121.955V184.069Z" fill="#8FF9A7" stroke="#8FF9A7" stroke-width="0.357681" stroke-miterlimit="10"/>
<path d="M154.287 152.775H178.224V216.052H197.782V152.775H222.28V135.518H154.287V152.775Z" fill="#8FF9A7" stroke="#8FF9A7" stroke-width="0.357681" stroke-miterlimit="10"/>
<path d="M285.334 184.069C285.375 186.836 284.657 189.563 283.255 191.951C281.936 194.229 280.055 196.13 277.79 197.474C275.43 198.842 272.741 199.537 270.014 199.483C267.384 199.52 264.797 198.824 262.541 197.474C260.318 196.136 258.491 194.23 257.252 191.951C255.924 189.538 255.249 186.822 255.29 184.069V135.518H235.439V185.108C235.337 190.868 236.877 196.538 239.877 201.455C242.86 206.243 247.096 210.123 252.125 212.677C257.669 215.355 263.746 216.746 269.902 216.746C276.06 216.746 282.136 215.355 287.68 212.677C292.705 210.116 296.94 206.237 299.929 201.455C302.925 196.537 304.46 190.867 304.354 185.108V135.518H285.334V184.069Z" fill="#8FF9A7" stroke="#8FF9A7" stroke-width="0.357681" stroke-miterlimit="10"/>
<path d="M374.381 184.303C378.441 182.085 381.819 178.804 384.154 174.81C386.565 170.675 387.801 165.958 387.726 161.172C387.799 156.532 386.56 151.967 384.154 148.001C381.768 144.116 378.37 140.956 374.322 138.858C370.004 136.592 365.187 135.444 360.311 135.518H324.112V216.086H342.796V187.748H352.861L368.799 216.052H391.124L373.026 185.004C373.482 184.77 373.937 184.549 374.381 184.303ZM342.737 151.854H356.889C359.049 151.789 361.195 152.224 363.16 153.127C364.818 153.904 366.203 155.166 367.13 156.747C368.073 158.411 368.549 160.298 368.508 162.211C368.556 164.118 368.156 166.009 367.34 167.733C366.569 169.3 365.35 170.601 363.836 171.47C362.245 172.379 360.437 172.835 358.606 172.79H342.726L342.737 151.854Z" fill="#8FF9A7" stroke="#8FF9A7" stroke-width="0.357681" stroke-miterlimit="10"/>
<path d="M423.854 183.029H455.836V167.161H423.854V152.203H461.008V135.518H404.868V216.052H462.164V199.377H423.854V183.029Z" fill="#8FF9A7" stroke="#8FF9A7" stroke-width="0.357681" stroke-miterlimit="10"/>
<path d="M535.271 181.597C533.902 178.844 531.941 176.428 529.527 174.521C526.833 172.415 523.847 170.712 520.664 169.466C516.96 167.994 513.124 166.875 509.209 166.125C507.424 165.846 505.657 165.457 503.92 164.958C502.362 164.514 500.858 163.9 499.436 163.125C498.259 162.495 497.206 161.657 496.33 160.65C495.549 159.714 495.134 158.528 495.162 157.31C495.109 155.904 495.603 154.531 496.54 153.48C497.59 152.352 498.92 151.517 500.393 151.063C502.305 150.449 504.306 150.157 506.313 150.198C508.523 150.198 510.719 150.549 512.818 151.238C514.945 151.937 516.96 152.944 518.795 154.227C520.77 155.619 522.535 157.288 524.039 159.179L536.135 147.642C532.267 141.62 526.299 137.251 519.392 135.381C514.954 134.16 510.367 133.57 505.764 133.63C501.861 133.616 497.98 134.219 494.263 135.416C490.746 136.515 487.452 138.231 484.536 140.484C481.792 142.601 479.519 145.265 477.858 148.307C476.205 151.362 475.358 154.784 475.394 158.256C475.348 161.378 475.895 164.48 477.005 167.399C478.091 170.14 479.755 172.612 481.885 174.649C484.293 176.903 487.08 178.713 490.118 179.997C493.86 181.601 497.752 182.833 501.737 183.676C503.348 183.991 504.913 184.353 506.406 184.773C507.892 185.18 509.351 185.679 510.775 186.268C512.028 186.775 513.227 187.413 514.347 188.171C515.283 188.809 516.077 189.632 516.682 190.588C517.261 191.519 517.562 192.598 517.546 193.694C517.585 195.106 517.093 196.481 516.168 197.548C515.092 198.663 513.738 199.47 512.245 199.883C510.423 200.441 508.524 200.713 506.617 200.689C502.463 200.684 498.36 199.78 494.59 198.037C490.697 196.279 486.844 192.827 483.03 187.68L471.178 201.144C473.727 204.391 476.709 207.276 480.041 209.715C483.468 212.197 487.301 214.066 491.367 215.238C496.025 216.562 500.852 217.203 505.694 217.14C511.288 217.289 516.852 216.288 522.041 214.199C526.524 212.356 530.394 209.284 533.204 205.336C536.022 201.145 537.452 196.173 537.292 191.126C537.367 187.835 536.675 184.573 535.271 181.597Z" fill="#8FF9A7" stroke="#8FF9A7" stroke-width="0.357681" stroke-miterlimit="10"/>
</g>
<defs>
<clipPath id="clip0_1_103">
<rect width="625.226" height="217.47" fill="white" transform="translate(0.0218506 0.25)"/>
</clipPath>
</defs>
</svg>
