<svg width="160" height="43" viewBox="0 0 160 43" fill="none" xmlns="http://www.w3.org/2000/svg">
<g clip-path="url(#clip0_5_2009)">
<path d="M64.2351 18.4901C64.1457 18.4268 64.0412 18.3732 63.927 18.3294C64.0662 18.266 64.1804 18.1784 64.2649 18.0663C64.3842 17.9056 64.4438 17.7108 64.4438 17.4721C64.4438 17.2577 64.3941 17.0726 64.2947 16.9168C64.1953 16.7609 64.0462 16.644 63.8574 16.5612C63.6636 16.4784 63.43 16.4394 63.1468 16.4394H61.3281V20.609H63.2064C63.4251 20.609 63.6239 20.5846 63.8028 20.5261C63.9816 20.4726 64.1357 20.3947 64.2649 20.2923C64.3941 20.19 64.4984 20.0586 64.563 19.9027C64.6327 19.7468 64.6625 19.5666 64.6625 19.3572C64.6625 19.172 64.6227 19.0015 64.5481 18.8555C64.4786 18.7142 64.3693 18.5924 64.2351 18.4901ZM62.1878 17.2188H62.9829C63.1766 17.2188 63.3257 17.2577 63.4201 17.3357C63.5146 17.4136 63.5643 17.5305 63.5643 17.6767C63.5643 17.7692 63.5444 17.8472 63.4997 17.9153C63.4599 17.9836 63.3953 18.0371 63.3158 18.0761C63.2363 18.115 63.1418 18.1345 63.0326 18.1345H62.1828V17.2188H62.1878ZM63.7034 19.6055C63.6537 19.6834 63.5891 19.7419 63.4946 19.7809C63.4052 19.8198 63.2959 19.8393 63.1667 19.8393H62.1878V18.8457H63.1418C63.2761 18.8457 63.3853 18.8652 63.4797 18.9041C63.5742 18.9431 63.6487 18.9966 63.6984 19.0698C63.7481 19.1428 63.7779 19.2305 63.7779 19.3327C63.7729 19.4351 63.753 19.5277 63.7034 19.6055Z" fill="#16315E"/>
<path d="M67.789 18.9558C67.789 19.1214 67.7492 19.2724 67.6746 19.4039C67.5952 19.5354 67.4908 19.6426 67.3566 19.7205C67.2225 19.7985 67.0734 19.8374 66.9095 19.8374C66.7504 19.8374 66.6063 19.7985 66.4771 19.7205C66.3479 19.6426 66.2435 19.5354 66.169 19.4039C66.0945 19.2724 66.0548 19.1214 66.0548 18.9558V16.4375H65.1504V19.0093C65.1504 19.3211 65.2249 19.6035 65.3789 19.852C65.533 20.1004 65.7367 20.2952 66.005 20.4365C66.2684 20.5778 66.5715 20.646 66.9095 20.646C67.2424 20.646 67.5455 20.5778 67.8138 20.4365C68.0822 20.2952 68.2908 20.1004 68.4399 19.852C68.5889 19.6035 68.6636 19.3211 68.6636 19.0093V16.4375H67.789V18.9558Z" fill="#16315E"/>
<path d="M69.3145 17.208H70.0151V19.8432H69.3145V20.6128H71.6101V19.8432H70.9145V17.208H71.6101V16.4434H69.3145V17.208Z" fill="#16315E"/>
<path d="M73.1894 16.4434H72.2949V20.6128H75.0876V19.8091H73.1894V16.4434Z" fill="#16315E"/>
<path d="M78.8232 17.023C78.6393 16.8379 78.4257 16.6966 78.1772 16.5943C77.9287 16.492 77.6505 16.4434 77.3424 16.4434H75.623V20.6128H77.3424C77.6505 20.6128 77.9287 20.5642 78.1822 20.4618C78.4356 20.3595 78.6493 20.2183 78.8281 20.0332C79.0071 19.848 79.1462 19.6289 79.2405 19.3708C79.335 19.1126 79.3847 18.835 79.3847 18.5281C79.3847 18.2163 79.335 17.9387 79.2405 17.6806C79.1412 17.4272 79.0021 17.208 78.8232 17.023ZM78.3959 19.059C78.3461 19.2198 78.2666 19.3513 78.1673 19.4633C78.0679 19.5705 77.9436 19.6581 77.7996 19.7215C77.6554 19.7848 77.4965 19.814 77.3126 19.814H76.5224V17.2519H77.3126C77.4915 17.2519 77.6554 17.2811 77.7996 17.3445C77.9436 17.4077 78.0679 17.4906 78.1673 17.6026C78.2666 17.7146 78.3461 17.8462 78.3959 18.0069C78.4455 18.1628 78.4753 18.3381 78.4753 18.533C78.4704 18.7229 78.4455 18.8983 78.3959 19.059Z" fill="#16315E"/>
<path d="M79.7051 17.208H80.4058V19.8432H79.7051V20.6128H82.0008V19.8432H81.3052V17.208H82.0008V16.4434H79.7051V17.208Z" fill="#16315E"/>
<path d="M85.5169 17.5783C85.5169 17.7488 85.5169 17.9046 85.5219 18.0507C85.5269 18.1969 85.5318 18.3333 85.5368 18.4599C85.5418 18.5914 85.5517 18.7132 85.5616 18.835C85.5716 18.9568 85.5815 19.0736 85.5964 19.1906C85.6014 19.2198 85.6063 19.2538 85.6063 19.2831L83.4895 16.4336H82.6895V20.6031H83.569V19.1028C83.569 19.0249 83.569 18.9471 83.564 18.8788C83.564 18.8058 83.5591 18.7327 83.5541 18.6548C83.5491 18.5768 83.5441 18.4843 83.5342 18.3771C83.5243 18.27 83.5143 18.1433 83.4994 17.9972C83.4945 17.9388 83.4895 17.8754 83.4796 17.8121L85.5815 20.6128H86.3965V16.4434H85.5169V17.5783Z" fill="#16315E"/>
<path d="M93.4983 16.4434H93.0859V20.6128H93.9853V18.9567H95.6649V18.1871H93.9853V17.247H95.9133V16.4434H93.9853H93.4983Z" fill="#16315E"/>
<path d="M99.0644 18.9558C99.0644 19.1214 99.0246 19.2724 98.9501 19.4039C98.8707 19.5354 98.7662 19.6426 98.6321 19.7205C98.4979 19.7985 98.3489 19.8374 98.1849 19.8374C98.0259 19.8374 97.8817 19.7985 97.7526 19.7205C97.6233 19.6426 97.519 19.5354 97.4445 19.4039C97.3699 19.2724 97.3301 19.1214 97.3301 18.9558V16.4375H96.4258V19.0093C96.4258 19.3211 96.5004 19.6035 96.6544 19.852C96.8085 20.1004 97.0121 20.2952 97.2805 20.4365C97.5439 20.5778 97.847 20.646 98.1849 20.646C98.5178 20.646 98.8209 20.5778 99.0892 20.4365C99.3576 20.2952 99.5663 20.1004 99.7153 19.852C99.8644 19.6035 99.9386 19.3211 99.9386 19.0093V16.4375H99.0644V18.9558Z" fill="#16315E"/>
<path d="M100.346 17.247H101.568V20.6128H102.467V17.247H103.72V16.4434H100.346V17.247Z" fill="#16315E"/>
<path d="M106.77 18.9558C106.77 19.1214 106.73 19.2724 106.655 19.4039C106.576 19.5354 106.472 19.6426 106.337 19.7205C106.203 19.7985 106.054 19.8374 105.89 19.8374C105.731 19.8374 105.587 19.7985 105.458 19.7205C105.328 19.6426 105.224 19.5354 105.149 19.4039C105.075 19.2724 105.035 19.1214 105.035 18.9558V16.4375H104.131V19.0093C104.131 19.3211 104.205 19.6035 104.359 19.852C104.513 20.1004 104.717 20.2952 104.985 20.4365C105.249 20.5778 105.553 20.646 105.89 20.646C106.223 20.646 106.526 20.5778 106.794 20.4365C107.063 20.2952 107.271 20.1004 107.42 19.852C107.569 19.6035 107.644 19.3211 107.644 19.0093V16.4375H106.77V18.9558Z" fill="#16315E"/>
<path d="M110.965 18.9372C111.179 18.8203 111.343 18.6547 111.467 18.4501C111.586 18.2455 111.651 18.0166 111.651 17.7682C111.651 17.5149 111.591 17.2859 111.467 17.0911C111.348 16.8914 111.179 16.7355 110.965 16.6187C110.752 16.5018 110.518 16.4434 110.259 16.4434H108.406V20.6128H109.276V19.1174H109.936L110.782 20.6128L111.82 20.6177L110.871 18.9859C110.906 18.9664 110.936 18.9567 110.965 18.9372ZM109.276 17.2178H110.105C110.234 17.2178 110.353 17.2421 110.454 17.2909C110.553 17.3396 110.628 17.4077 110.682 17.4955C110.732 17.5831 110.762 17.6854 110.762 17.8072C110.762 17.9192 110.742 18.0166 110.697 18.1091C110.653 18.2017 110.593 18.2699 110.508 18.3187C110.428 18.3673 110.329 18.3917 110.224 18.3917H109.281V17.2178H109.276Z" fill="#16315E"/>
<path d="M113.182 18.8642H114.842V18.1043H113.182V17.2275H115.13V16.4434H112.303V20.6128H115.175V19.8237H113.182V18.8642Z" fill="#16315E"/>
<path d="M118.667 18.8732C118.597 18.7369 118.503 18.6151 118.379 18.5177C118.254 18.4154 118.1 18.3277 117.927 18.2595C117.753 18.1864 117.554 18.128 117.335 18.0891C117.221 18.0647 117.112 18.0355 117.017 18.0062C116.922 17.9721 116.838 17.938 116.773 17.8942C116.704 17.8503 116.654 17.8016 116.619 17.7481C116.584 17.6945 116.564 17.6312 116.564 17.5581C116.564 17.4704 116.589 17.3925 116.644 17.3291C116.699 17.2659 116.773 17.2123 116.867 17.1781C116.962 17.1441 117.077 17.1294 117.211 17.1294C117.33 17.1294 117.45 17.1489 117.559 17.188C117.673 17.2269 117.777 17.2805 117.877 17.3584C117.976 17.4315 118.066 17.5289 118.15 17.636L118.647 16.9833C118.538 16.8372 118.503 16.8031 118.364 16.6911C118.22 16.5839 118.056 16.5012 117.862 16.4427C117.673 16.3891 117.45 16.3599 117.191 16.3599C116.982 16.3599 116.788 16.3891 116.599 16.4475C116.415 16.506 116.251 16.5937 116.107 16.7057C115.963 16.8177 115.854 16.9492 115.775 17.1002C115.695 17.2513 115.655 17.4169 115.655 17.5971C115.655 17.7724 115.68 17.9283 115.735 18.0696C115.79 18.2109 115.869 18.3326 115.983 18.4398C116.093 18.5469 116.237 18.6395 116.401 18.7125C116.569 18.7856 116.763 18.8489 116.987 18.9025C117.092 18.9171 117.186 18.9415 117.276 18.9658C117.365 18.9902 117.445 19.0194 117.514 19.0534C117.584 19.0876 117.648 19.1266 117.698 19.1655C117.748 19.2093 117.787 19.2532 117.817 19.3068C117.847 19.3603 117.857 19.4188 117.857 19.4821C117.857 19.5698 117.827 19.6429 117.773 19.7062C117.718 19.7695 117.638 19.8182 117.544 19.8523C117.445 19.8864 117.335 19.9059 117.211 19.9059C116.982 19.9059 116.773 19.8572 116.579 19.7598C116.386 19.6623 116.192 19.4773 115.998 19.2093L115.477 19.901C115.606 20.0763 115.715 20.1738 115.879 20.2956C116.043 20.4173 116.232 20.5099 116.445 20.5732C116.659 20.6366 116.892 20.6706 117.157 20.6706C117.474 20.6706 117.753 20.6171 117.996 20.5148C118.234 20.4076 118.423 20.2566 118.557 20.0569C118.691 19.8572 118.761 19.6185 118.761 19.336C118.766 19.1655 118.731 19.0096 118.667 18.8732Z" fill="#16315E"/>
<path d="M90.4829 18.3715H89.1511V19.1313H90.3536C90.1349 19.5746 89.6778 19.8766 89.1511 19.8766C88.4107 19.8766 87.8094 19.2775 87.8094 18.542C87.8094 17.8064 88.4107 17.2073 89.1511 17.2073C89.6629 17.2073 90.1101 17.4948 90.3337 17.9136C90.3387 17.9185 90.3387 17.9282 90.3437 17.9331L90.8406 17.2901C90.448 16.7397 89.807 16.3793 89.0766 16.3793C87.884 16.3793 86.9199 17.3389 86.9199 18.5274C86.9199 19.7109 87.884 20.6754 89.0766 20.6754C90.2692 20.6754 91.2332 19.7159 91.2332 18.5274C91.2332 18.4835 91.2332 18.4251 91.2282 18.3813L90.4829 18.3715Z" fill="#16315E"/>
<path d="M67.8932 24.626C64.1217 24.626 61.0508 27.6788 61.0508 31.4327C61.0508 35.1866 64.1217 38.2394 67.8932 38.2394C71.6648 38.2394 74.7358 35.1866 74.7358 31.4327C74.7358 27.6788 71.6648 24.626 67.8932 24.626ZM71.9828 31.4327C71.9828 33.6772 70.1492 35.5079 67.8932 35.5079C65.6372 35.5079 63.8036 33.6821 63.8036 31.4327C63.8036 29.1881 65.6372 27.3574 67.8932 27.3574C70.1492 27.3574 71.9828 29.1881 71.9828 31.4327Z" fill="#16315E"/>
<path d="M127.289 24.626C123.518 24.626 120.447 27.6788 120.447 31.4327C120.447 35.1866 123.518 38.2394 127.289 38.2394C131.062 38.2394 134.133 35.1866 134.133 31.4327C134.133 27.6788 131.062 24.626 127.289 24.626ZM131.38 31.4327C131.38 33.6772 129.546 35.5079 127.289 35.5079C125.033 35.5079 123.2 33.6821 123.2 31.4327C123.2 29.1881 125.033 27.3574 127.289 27.3574C129.546 27.3574 131.38 29.1881 131.38 31.4327Z" fill="#16315E"/>
<path d="M74.5273 27.5048H78.2095V38.1286H81.0966V27.5048H84.888V24.8221H74.5273V27.5048Z" fill="#16315E"/>
<path d="M89.1101 32.6365H94.2433V30.022H89.1101V27.4707H95.1824V24.8221H86.2578V38.1286H95.2569V35.48H89.1101V32.6365Z" fill="#16315E"/>
<path d="M138.378 33.294V24.7832H135.496V38.1385H138.07L144.386 29.8371V32.6074C144.386 32.7146 144.381 32.812 144.381 32.9142L144.386 38.1482H146.811L147.059 38.1385H147.268V24.7832H144.73L138.378 33.294Z" fill="#10CFC9"/>
<path d="M32.3439 34.6856C25.5859 34.6856 20.1099 29.2324 20.1099 22.5085C20.1099 15.7846 25.5859 10.3315 32.3439 10.3315C35.1464 10.3315 37.7354 11.2711 39.7975 12.8536L44.553 6.64087C41.184 4.06524 36.9702 2.53641 32.3936 2.53641C21.6155 2.53641 12.8352 11.0229 12.4227 21.6467C3.52301 29.8897 -1.37655 38.1278 2.21116 41.5945C4.0547 43.3765 11.5034 42.2956 17.367 39.8417C17.6949 39.7054 17.4911 39.272 17.1384 39.3207C12.3382 40.0121 8.21385 39.5107 6.85232 37.7189C4.84478 35.0799 7.13058 29.6171 12.4276 23.3265C12.8997 33.892 21.6603 42.3151 32.3936 42.3151C36.9702 42.3151 41.184 40.7863 44.553 38.2106L39.8572 32.11C37.785 33.7264 35.1813 34.6856 32.3439 34.6856Z" fill="#16315E"/>
<path d="M37.8194 28.9449C37.6156 29.0812 37.397 28.7939 37.5858 28.6333C45.4868 21.8022 55.4349 13.345 53.979 6.82558C53.174 3.22262 47.1763 2.95483 43.9911 3.58778C43.4643 3.6949 43.4544 3.31513 43.9414 3.09116C49.4868 0.559349 58.0387 -0.579967 59.8724 2.38031C62.973 7.3855 51.1217 20.2345 37.8194 28.9449Z" fill="#16315E"/>
<path d="M58.9263 34.0424C58.1462 34.9724 57.0033 35.5031 55.7859 35.5031C55.3386 35.5031 54.9113 35.4301 54.5088 35.2986C52.879 34.7631 51.6963 33.2294 51.6963 31.4279C51.6963 29.6361 52.8641 28.1122 54.479 27.5669C54.8915 27.4306 55.3287 27.3527 55.7859 27.3527C57.0133 27.3527 58.1661 27.893 58.9462 28.8376L59.145 29.0762L60.8296 26.8171L60.7202 26.7051C59.4183 25.3564 57.6642 24.6163 55.7859 24.6163C54.7125 24.6163 53.6989 24.8647 52.7944 25.3028C50.5186 26.4081 48.9434 28.7354 48.9434 31.423C48.9434 34.1204 50.5286 36.4525 52.8194 37.5529C53.7188 37.9863 54.7225 38.2248 55.7859 38.2248C57.6493 38.2248 59.3935 37.4896 60.6953 36.1604L60.8047 36.0485L59.1251 33.7941L58.9263 34.0424Z" fill="#16315E"/>
<path d="M106.284 34.0424C105.503 34.9724 104.361 35.5031 103.144 35.5031C102.696 35.5031 102.268 35.4301 101.866 35.2986C100.237 34.7631 99.0537 33.2294 99.0537 31.4279C99.0537 29.6361 100.222 28.1122 101.836 27.5669C102.249 27.4306 102.686 27.3527 103.144 27.3527C104.371 27.3527 105.523 27.893 106.304 28.8376L106.503 29.0762L108.187 26.8171L108.077 26.7051C106.776 25.3564 105.021 24.6163 103.144 24.6163C102.07 24.6163 101.056 24.8647 100.152 25.3028C97.876 26.4081 96.3008 28.7354 96.3008 31.423C96.3008 34.1204 97.886 36.4525 100.177 37.5529C101.076 37.9863 102.08 38.2248 103.144 38.2248C105.007 38.2248 106.751 37.4896 108.053 36.1604L108.162 36.0485L106.483 33.7941L106.284 34.0424Z" fill="#16315E"/>
<path d="M118.383 34.0424C117.603 34.9724 116.461 35.5031 115.243 35.5031C114.795 35.5031 114.368 35.4301 113.966 35.2986C112.336 34.7631 111.153 33.2294 111.153 31.4279C111.153 29.6361 112.321 28.1122 113.936 27.5669C114.348 27.4306 114.786 27.3527 115.243 27.3527C116.47 27.3527 117.623 27.893 118.403 28.8376L118.602 29.0762L120.286 26.8171L120.177 26.7051C118.875 25.3564 117.121 24.6163 115.243 24.6163C114.17 24.6163 113.156 24.8647 112.251 25.3028C109.975 26.4081 108.4 28.7354 108.4 31.423C108.4 34.1204 109.985 36.4525 112.276 37.5529C113.176 37.9863 114.18 38.2248 115.243 38.2248C117.106 38.2248 118.85 37.4896 120.152 36.1604L120.262 36.0485L118.582 33.7941L118.383 34.0424Z" fill="#16315E"/>
<path d="M158.714 32.5191C158.491 32.0711 158.173 31.6768 157.766 31.3506C157.368 31.0292 156.881 30.7517 156.329 30.5277C156.235 30.4888 156.14 30.4547 156.041 30.4158C155.569 30.2453 155.043 30.0993 154.481 29.9873C154.138 29.9191 153.825 29.8364 153.542 29.7389C153.392 29.6902 153.253 29.6318 153.124 29.5734C153.025 29.5247 152.93 29.476 152.846 29.4274C152.672 29.3203 152.538 29.1986 152.448 29.0573C152.364 28.9258 152.324 28.7798 152.324 28.6094C152.324 28.4 152.389 28.2199 152.513 28.0641C152.647 27.9033 152.841 27.7768 153.084 27.6891C153.348 27.5967 153.671 27.548 154.039 27.548C154.223 27.548 154.412 27.5674 154.59 27.5967C154.735 27.621 154.884 27.6599 155.023 27.7038C155.341 27.8109 155.639 27.9716 155.912 28.1809C156.19 28.3951 156.453 28.6678 156.693 28.9843L156.891 29.2472L158.695 26.8274L158.605 26.7057C158.257 26.2383 158.138 26.1166 157.691 25.7757C157.329 25.4982 156.911 25.2693 156.443 25.0989C156.329 25.0551 156.21 25.0162 156.086 24.9821C155.485 24.8067 154.774 24.7191 153.974 24.7191C153.318 24.7191 152.692 24.8165 152.101 25.0016C151.51 25.1914 150.983 25.469 150.53 25.8244C150.073 26.1847 149.71 26.6131 149.452 27.1097C149.194 27.6064 149.06 28.1517 149.06 28.736C149.06 29.2959 149.149 29.8072 149.323 30.255C149.497 30.7079 149.77 31.1169 150.138 31.4723C150.421 31.7498 150.76 31.9884 151.152 32.1977C151.261 32.2561 151.371 32.3098 151.485 32.3584C152.006 32.5872 152.622 32.7868 153.313 32.9427L153.333 32.9476C153.582 32.9865 153.811 33.0352 154.024 33.0888C154.074 33.1034 154.124 33.1131 154.173 33.1277C154.427 33.2007 154.66 33.2884 154.864 33.3857C155.062 33.4782 155.236 33.5854 155.375 33.6974C155.504 33.8045 155.609 33.9213 155.673 34.0527C155.743 34.1843 155.773 34.3206 155.773 34.4764C155.773 34.6808 155.708 34.8513 155.579 34.9925C155.435 35.1483 155.236 35.2748 154.978 35.3723C154.71 35.4697 154.402 35.5183 154.054 35.5183C153.482 35.5183 152.94 35.4064 152.444 35.1921C152.379 35.1629 152.309 35.1337 152.245 35.0996C151.693 34.8221 151.127 34.2865 150.56 33.4977L150.366 33.2299L148.479 35.7617L148.568 35.8834C148.995 36.4482 149.348 36.7599 149.85 37.1347C150.093 37.315 150.356 37.4756 150.635 37.6168C150.958 37.7823 151.301 37.9187 151.659 38.0258C152.329 38.2254 153.079 38.3276 153.89 38.3276C154.893 38.3276 155.783 38.1572 156.544 37.8261C157.314 37.4902 157.925 36.9936 158.362 36.3509C158.799 35.7082 159.022 34.9243 159.022 34.0235C159.047 33.4782 158.933 32.9719 158.714 32.5191Z" fill="#16315E"/>
</g>
<defs>
<clipPath id="clip0_5_2009">
<rect width="158.958" height="42.72" fill="white" transform="translate(0.521484 0.140015)"/>
</clipPath>
</defs>
</svg>
