<svg width="20" height="21" viewBox="0 0 20 21" fill="none" xmlns="http://www.w3.org/2000/svg">
<g id="Frame">
<path id="Vector" d="M8.55295 17.2334C10.4506 17.233 12.2936 16.6273 13.7884 15.5125L18.4883 19.9941L20 18.5526L15.3002 14.071C16.4698 12.6455 17.1054 10.8877 17.1059 9.07764C17.1059 4.58076 13.2688 0.921875 8.55295 0.921875C3.83707 0.921875 0 4.58076 0 9.07764C0 13.5745 3.83707 17.2334 8.55295 17.2334ZM8.55295 2.96082C12.0907 2.96082 14.9677 5.70421 14.9677 9.07764C14.9677 12.4511 12.0907 15.1945 8.55295 15.1945C5.01523 15.1945 2.13824 12.4511 2.13824 9.07764C2.13824 5.70421 5.01523 2.96082 8.55295 2.96082Z" fill="#16315E"/>
</g>
</svg>
